<svg width="94" height="92" viewBox="0 0 94 92" fill="none" xmlns="http://www.w3.org/2000/svg">
<path fill-rule="evenodd" clip-rule="evenodd" d="M21.2104 88.2764C21.552 85.6797 24.1828 81.3333 22.0156 79.8621C12.8887 73.6675 2.52798 65.4896 3.01665 53.2419C3.21391 48.2777 4.66109 42.1367 8.1813 38.4368C10.5637 35.934 14.9985 35.4657 17.3029 38.4761C19.7381 41.6602 17.7108 46.7812 17.4741 50.3405C17.2984 52.9973 18.0731 55.3042 21.0185 55.6812C21.9116 55.7958 22.8288 55.7641 23.7219 55.6593C24.9548 55.5151 26.133 55.159 27.1964 54.5125C30.7363 52.359 32.6471 46.5771 32.7511 42.6507C32.8165 40.1533 31.9189 37.5879 29.3483 36.8116C25.3537 35.6064 21.3655 40.5682 17.5754 38.3117C16.9486 37.9383 16.3766 37.4616 15.9453 36.8698C12.9998 32.8278 16.4466 28.5638 19.7525 26.1802C22.9248 23.8923 27.0547 21.8311 31.0349 21.7004C39.9251 21.4103 45.2054 30.4155 46.3862 38.1574C47.0264 30.625 44.4755 23.0731 43.9285 15.6007C43.6882 12.3091 43.3422 8.54499 44.9705 5.51755C46.3907 2.87872 49.2609 2.18727 51.7347 4.05155C54.2875 5.97493 55.8727 9.24573 56.9702 12.1559C60.2411 20.8272 60.6625 30.2609 58.6621 39.2071C61.2202 33.1003 63.6995 26.943 66.1939 20.8093C67.3506 17.9681 68.2759 14.5621 70.2163 12.8921C72.9044 10.5766 76.3645 11.3851 78.1605 14.425C79.7215 17.0674 79.8201 20.1847 79.4973 23.1638C78.85 29.147 76.2506 34.8587 73.4585 40.1113C70.3552 45.9504 67.0556 51.804 62.5562 56.6697C66.3732 53.5715 70.0064 50.4187 73.5168 46.9722C76.8415 43.7074 80.7813 37.4762 85.6151 36.2432C89.1721 35.3362 90.8264 38.3331 90.9044 41.6543C91.004 45.8673 88.1661 49.8537 85.5604 52.9206C80.2819 59.1348 74.0216 64.5008 67.2403 69.0155C64.9548 70.5378 62.6047 71.9632 60.199 73.2885C59.1437 73.8696 57.2724 74.4132 56.4591 75.28C55.5266 76.2739 55.1652 78.1688 54.7618 79.4161C53.7172 82.6406 52.6735 85.966 52.0772 89.3087" fill="white"/>
<path d="M21.2104 88.2764C21.552 85.6797 24.1828 81.3333 22.0156 79.8621C12.8887 73.6675 2.52798 65.4896 3.01665 53.2419C3.21391 48.2777 4.66109 42.1367 8.1813 38.4368C10.5637 35.934 14.9985 35.4657 17.3029 38.4761C19.7381 41.6602 17.7108 46.7812 17.4741 50.3405C17.2984 52.9973 18.0731 55.3042 21.0185 55.6812C21.9116 55.7958 22.8288 55.7641 23.7219 55.6593C24.9548 55.5151 26.133 55.159 27.1964 54.5125C30.7363 52.359 32.6471 46.5771 32.7511 42.6507C32.8165 40.1533 31.9189 37.5879 29.3483 36.8116C25.3537 35.6064 21.3655 40.5682 17.5754 38.3117C16.9486 37.9383 16.3766 37.4616 15.9453 36.8698C12.9998 32.8278 16.4466 28.5638 19.7525 26.1802C22.9248 23.8923 27.0547 21.8311 31.0349 21.7004C39.9251 21.4103 45.2054 30.4155 46.3862 38.1574C47.0264 30.625 44.4755 23.0731 43.9285 15.6007C43.6882 12.3091 43.3422 8.54499 44.9705 5.51755C46.3907 2.87872 49.2609 2.18727 51.7347 4.05155C54.2875 5.97493 55.8727 9.24573 56.9702 12.1559C60.2411 20.8272 60.6625 30.2609 58.6621 39.2071C61.2202 33.1003 63.6995 26.943 66.1939 20.8093C67.3506 17.9681 68.2759 14.5621 70.2163 12.8921C72.9044 10.5766 76.3645 11.3851 78.1605 14.425C79.7215 17.0674 79.8201 20.1847 79.4973 23.1638C78.85 29.147 76.2506 34.8587 73.4585 40.1113C70.3552 45.9504 67.0556 51.804 62.5562 56.6697C66.3732 53.5715 70.0064 50.4187 73.5168 46.9722C76.8415 43.7074 80.7813 37.4762 85.6151 36.2432C89.1721 35.3362 90.8264 38.3331 90.9044 41.6543C91.004 45.8673 88.1661 49.8537 85.5604 52.9206C80.2819 59.1348 74.0216 64.5008 67.2403 69.0155C64.9548 70.5378 62.6047 71.9632 60.199 73.2885C59.1437 73.8696 57.2724 74.4132 56.4591 75.28C55.5266 76.2739 55.1652 78.1688 54.7618 79.4161C53.7172 82.6406 52.6735 85.966 52.0772 89.3087" stroke="#FCE513" stroke-width="5" stroke-miterlimit="1.5" stroke-linecap="round" stroke-linejoin="round"/>
</svg>
