<svg width="104" height="34" viewBox="0 0 104 34" fill="none" xmlns="http://www.w3.org/2000/svg">
<path d="M62.0625 15.9625C62.0625 17.2875 61.8417 18.5042 61.4 19.6125C60.9583 20.7208 60.3375 21.675 59.5375 22.475C58.7375 23.275 57.775 23.8958 56.65 24.3375C55.525 24.7792 54.275 25 52.9 25H46.0125V6.925H52.9C54.275 6.925 55.525 7.15 56.65 7.6C57.775 8.04167 58.7375 8.6625 59.5375 9.4625C60.3375 10.2542 60.9583 11.2042 61.4 12.3125C61.8417 13.4208 62.0625 14.6375 62.0625 15.9625ZM58.6125 15.9625C58.6125 14.9708 58.4792 14.0833 58.2125 13.3C57.9542 12.5083 57.575 11.8417 57.075 11.3C56.5833 10.75 55.9833 10.3292 55.275 10.0375C54.575 9.74583 53.7833 9.6 52.9 9.6H49.3875V22.325H52.9C53.7833 22.325 54.575 22.1792 55.275 21.8875C55.9833 21.5958 56.5833 21.1792 57.075 20.6375C57.575 20.0875 57.9542 19.4208 58.2125 18.6375C58.4792 17.8458 58.6125 16.9542 58.6125 15.9625ZM79.9436 20.7375C80.1269 20.7375 80.2894 20.8083 80.4311 20.95L81.7561 22.3875C81.0227 23.2958 80.1186 23.9917 79.0436 24.475C77.9769 24.9583 76.6936 25.2 75.1936 25.2C73.8519 25.2 72.6436 24.9708 71.5686 24.5125C70.5019 24.0542 69.5894 23.4167 68.8311 22.6C68.0727 21.7833 67.4894 20.8083 67.0811 19.675C66.6811 18.5417 66.4811 17.3042 66.4811 15.9625C66.4811 14.6042 66.6977 13.3625 67.1311 12.2375C67.5644 11.1042 68.1727 10.1292 68.9561 9.3125C69.7477 8.49583 70.6894 7.8625 71.7811 7.4125C72.8727 6.95417 74.0811 6.725 75.4061 6.725C76.7227 6.725 77.8894 6.94167 78.9061 7.375C79.9311 7.80833 80.8019 8.375 81.5186 9.075L80.3936 10.6375C80.3269 10.7375 80.2394 10.825 80.1311 10.9C80.0311 10.975 79.8894 11.0125 79.7061 11.0125C79.5811 11.0125 79.4519 10.9792 79.3186 10.9125C79.1852 10.8375 79.0394 10.75 78.8811 10.65C78.7227 10.5417 78.5394 10.425 78.3311 10.3C78.1227 10.175 77.8811 10.0625 77.6061 9.9625C77.3311 9.85417 77.0102 9.76667 76.6436 9.7C76.2852 9.625 75.8686 9.5875 75.3936 9.5875C74.5852 9.5875 73.8436 9.73333 73.1686 10.025C72.5019 10.3083 71.9269 10.725 71.4436 11.275C70.9602 11.8167 70.5852 12.4833 70.3186 13.275C70.0519 14.0583 69.9186 14.9542 69.9186 15.9625C69.9186 16.9792 70.0602 17.8833 70.3436 18.675C70.6352 19.4667 71.0269 20.1333 71.5186 20.675C72.0102 21.2167 72.5894 21.6333 73.2561 21.925C73.9227 22.2083 74.6394 22.35 75.4061 22.35C75.8644 22.35 76.2769 22.325 76.6436 22.275C77.0186 22.225 77.3602 22.1458 77.6686 22.0375C77.9852 21.9292 78.2811 21.7917 78.5561 21.625C78.8394 21.45 79.1186 21.2375 79.3936 20.9875C79.4769 20.9125 79.5644 20.8542 79.6561 20.8125C79.7477 20.7625 79.8436 20.7375 79.9436 20.7375ZM102.609 15.9625C102.609 17.2875 102.389 18.5042 101.947 19.6125C101.505 20.7208 100.884 21.675 100.084 22.475C99.2844 23.275 98.3219 23.8958 97.1969 24.3375C96.0719 24.7792 94.8219 25 93.4469 25H86.5594V6.925H93.4469C94.8219 6.925 96.0719 7.15 97.1969 7.6C98.3219 8.04167 99.2844 8.6625 100.084 9.4625C100.884 10.2542 101.505 11.2042 101.947 12.3125C102.389 13.4208 102.609 14.6375 102.609 15.9625ZM99.1594 15.9625C99.1594 14.9708 99.026 14.0833 98.7594 13.3C98.501 12.5083 98.1219 11.8417 97.6219 11.3C97.1302 10.75 96.5302 10.3292 95.8219 10.0375C95.1219 9.74583 94.3302 9.6 93.4469 9.6H89.9344V22.325H93.4469C94.3302 22.325 95.1219 22.1792 95.8219 21.8875C96.5302 21.5958 97.1302 21.1792 97.6219 20.6375C98.1219 20.0875 98.501 19.4208 98.7594 18.6375C99.026 17.8458 99.1594 16.9542 99.1594 15.9625Z" fill="black"/>
<path d="M0 6C0 2.68629 2.68629 0 6 0H17V34H6C2.68629 34 0 31.3137 0 28V6Z" fill="#FCE513"/>
<path d="M17 17H34V28C34 31.3137 31.3137 34 28 34H17V17Z" fill="#E24A4A"/>
<path d="M17 0H28C31.3137 0 34 2.68629 34 6V17H17V0Z" fill="#5780EB"/>
</svg>
