<svg width="51" height="21" viewBox="0 0 51 21" fill="none" xmlns="http://www.w3.org/2000/svg">
<rect x="0.75" y="0.75" width="49.5" height="19.5" stroke="black" stroke-width="1.5"/>
<path d="M5.76462 4.20312H7.40817L11.6006 14.6357L15.7841 4.20312H17.4365L12.2334 17H10.9502L5.76462 4.20312ZM5.22849 4.20312H6.67868L6.91599 12.0078V17H5.22849V4.20312ZM16.5136 4.20312H17.9638V17H16.2763V12.0078L16.5136 4.20312ZM22.6396 4.20312V17H20.9433V4.20312H22.6396ZM30.3652 4.20312L25.0478 10.1709L22.0595 13.2734L21.7783 11.4629L24.0283 8.98438L28.3261 4.20312H30.3652ZM28.7304 17L23.9931 10.7598L25.0039 9.41504L30.7519 17H28.7304Z" fill="black"/>
<rect x="32.7523" y="15.4" width="12.633" height="1.55556" fill="black"/>
</svg>
